<?xml version="1.0" encoding="utf-8"?>
<!-- Generator: Adobe Illustrator 23.0.3, SVG Export Plug-In . SVG Version: 6.00 Build 0)  -->
<svg version="1.1" id="Layer_1" xmlns="http://www.w3.org/2000/svg" xmlns:xlink="http://www.w3.org/1999/xlink" x="0px" y="0px"
	 viewBox="0 0 53.4 32.6" style="enable-background:new 0 0 53.4 32.6;" xml:space="preserve">
<g>
	<path style="fill:#005D9A;" d="M25.3,12.8c10.4-12,21.8-10.6,24.8-9.9C49.6,2,49,1.2,48.4,0.3c-3.9-0.7-14.4-1.1-24.1,10
		c-10.1,11.6-21,10.6-24.5,9.9c0.1,0.8,0.3,1.6,0.4,2.3C3.2,23.2,14.8,25,25.3,12.8z"/>
	<path style="fill:#005D9A;" d="M27.1,17.5C38,4.9,50,7.1,52.3,7.8l-0.9-2.4C49,4.8,37.1,2.7,26.2,15.2S3.3,25.5,1,24.9l0.9,2.4
		C4.4,27.9,16.3,30,27.1,17.5z"/>
	<path style="fill:#005D9A;" d="M28.9,22.2C39,10.6,50,11.6,53.4,12.3c-0.1-0.8-0.3-1.6-0.4-2.3c-2.8-0.6-14.4-2.4-25,9.9
		c-10.4,12-21.8,10.6-24.8,9.9c0.5,0.9,1.1,1.7,1.7,2.6C8.8,32.9,19.2,33.4,28.9,22.2z"/>
	<path style="fill:#183059;" d="M24,8.8c0.5-0.6,1.1-1.2,1.7-1.7C17-0.7,8.3-0.2,4.8,0.3C4.2,1.1,3.6,2,3.1,2.9
		C5.8,2.3,14.8,1.1,24,8.8z M36.9,17.1c-0.8,0.4-1.6,1-2.2,1.6c8.4,5.6,16.1,4.4,18.3,3.9c0.2-0.8,0.3-1.5,0.4-2.3
		C47.7,21.3,41.8,20.1,36.9,17.1z"/>
	<path style="fill:#183059;" d="M20.6,12.2c0.6-0.5,1.2-1.1,1.8-1.8C13.1,3,4.1,4.7,2,5.2C1.7,6,1.3,6.8,1.1,7.6
		C3,7.2,11.6,5.6,20.6,12.2z M32.7,20.3c-0.6,0.5-1.2,1.1-1.8,1.8c9.3,7.4,18.3,5.7,20.4,5.2c0.3-0.8,0.7-1.6,0.9-2.4
		C50.4,25.3,41.8,26.9,32.7,20.3z"/>
	<path style="fill:#183059;" d="M16.5,15.4c0.8-0.5,1.5-1,2.2-1.6C13.4,10.1,6.8,8.7,0.4,9.9c-0.2,0.8-0.3,1.5-0.4,2.3
		C5.6,11.3,11.5,12.4,16.5,15.4z"/>
	<path style="fill:#183059;" d="M29.4,23.8c-0.5,0.6-1.1,1.2-1.7,1.7c8.7,7.7,17.3,7.3,20.8,6.7c0.6-0.8,1.2-1.7,1.7-2.6
		C47.5,30.3,38.6,31.5,29.4,23.8z"/>
</g>
</svg>
