<svg xmlns="http://www.w3.org/2000/svg" viewBox="0 0 191.1 76.8"><path d="M6.8 40.7c5.1 0 7.7 3.8 7.7 8.8 0 5.7-2.7 9.4-7.7 9.4H0V40.7h6.8zm-4.2 2.5v13.1h4.2c3.4 0 5-2.4 5-6.8 0-3.8-1.6-6.3-5-6.3H2.6zm17.2.6h-2.5v-3.1h2.5v3.1zm0 15h-2.5v-13h2.5v13zm5.7 1c.3 1.1 1.2 1.7 2.8 1.7 2.2 0 3-1.1 3-3.7v-.5c-.9 1-2.1 1.5-3.4 1.5-3.4 0-5.3-2.7-5.3-6.7 0-3.6 2-6.5 5.5-6.5 1.2 0 2.4.5 3.2 1.4v-1.2h2.4v12c0 3.9-1.9 6-5.4 6-3.1 0-5-1.6-5.3-4h2.5zm2.7-3.3c2.1 0 3.2-1.4 3.2-4.3s-1-4.4-3.1-4.4S25 49.5 25 52c.1 3 1.1 4.5 3.2 4.5zm11.6-12.7h-2.5v-3.1h2.5v3.1zm0 15h-2.5v-13h2.5v13zm7-13h2.8V48h-2.8v7.4c0 1 .6 1.2 1.4 1.2h.8v2.1c-.5.1-.9.1-1.4.1-1.7 0-3.4-.6-3.4-3.5V48h-2.1v-2.3h2.1v-5h2.5v5.1h.1zm10.2-.2c1.1 0 2.2.4 3 1.2v-1.1h2.5v10.1c0 .7.4.9 1 .9h.4v2c-.3.1-.7.1-1 .1-1.1.1-2.1-.5-2.5-1.5-.8 1-2.1 1.6-3.5 1.6-3.5 0-5.6-2.8-5.6-6.9.1-3.5 2.3-6.4 5.7-6.4zm.2 11.2c2 0 3-1.4 3-4.4s-.9-4.4-2.9-4.4-3.4 1.8-3.4 4.2c0 2.9 1.1 4.6 3.3 4.6zm11.6-1.4c0 1 .4 1.2 1.2 1.2h.4v2.1c-.3.1-.6.1-.9.1-1.6 0-3.1-.6-3.1-3.5V40.7h2.5l-.1 14.7z" fill="#005d9a"/><path d="M82.6 45.8c-.1-1.5-1-3-3.8-3-2.2 0-3.6.9-3.6 2.5 0 1.9 1.6 2.1 6 3.2 2.5.7 4.4 2.1 4.4 5.2S82.8 59 78.7 59c-4.9 0-6.7-3.3-6.9-5.9h2.8c.2 1.7 1.3 3.4 4.1 3.4 2.5 0 4.2-1.1 4.2-2.9 0-2.2-1.6-2.4-6.1-3.6-2.4-.6-4.2-2.2-4.2-4.9 0-2.9 2.6-5 6.3-5 4.9 0 6.3 3.1 6.5 5.5l-2.8.2zm9.2 0h2.8V48h-2.8v7.4c0 1 .6 1.2 1.4 1.2h.8v2.1c-.5.1-.9.1-1.4.1-1.7 0-3.4-.6-3.4-3.5V48h-2.1v-2.3h2.1v-5h2.5l.1 5.1zm5.3 0h2.5v8c0 2 1.2 3 2.5 3 1.8 0 2.9-1.2 2.9-4.1v-6.9h2.5v13H105v-1.1c-.9.9-2.1 1.4-3.4 1.3-2.9 0-4.5-2-4.5-5v-8.2zm21.8 1.1v-6.3h2.5v18.1h-2.5v-1.2c-.8.9-2 1.4-3.2 1.4-3.5 0-5.5-2.7-5.5-6.9 0-3.7 2.1-6.5 5.5-6.5 1.2.1 2.3.6 3.2 1.4zm.1 5.4c0-3-1.1-4.4-3.1-4.4s-3.2 1.7-3.2 4.2c0 2.9 1 4.5 3.2 4.5s3.1-1.4 3.1-4.3zm8.4-8.5h-2.5v-3.1h2.5v3.1zm0 15h-2.5v-13h2.5v13zm14.4-6.6c0 4.2-2.2 6.8-5.8 6.8s-5.8-2.5-5.8-6.8 2.4-6.6 5.8-6.6c3.6 0 5.8 2.8 5.8 6.6zm-2.6 0c0-2.7-1.1-4.3-3.2-4.3s-3.2 1.5-3.2 4.3 1.1 4.5 3.3 4.5 3.1-1.5 3.1-4.5z" fill="#002d5a"/><path d="M94.4 12.8c10.4-12 21.8-10.6 24.8-9.9-.5-.9-1.1-1.7-1.7-2.6-3.9-.7-14.4-1.1-24.1 10-10.1 11.6-21 10.6-24.5 9.9.1.8.3 1.6.4 2.3 3 .7 14.6 2.5 25.1-9.7z" fill="#005d9a"/><path d="M96.2 17.5c10.9-12.6 22.9-10.4 25.2-9.7l-.9-2.4c-2.4-.6-14.3-2.7-25.2 9.8s-22.9 10.3-25.2 9.7l.9 2.4c2.5.6 14.4 2.7 25.2-9.8z" fill="#005d9a"/><path d="M98 22.2c10.1-11.6 21.1-10.6 24.5-9.9-.1-.8-.3-1.6-.4-2.3-2.8-.6-14.4-2.4-25 9.9-10.4 12-21.8 10.6-24.8 9.9.5.9 1.1 1.7 1.7 2.6 3.9.5 14.3 1 24-10.2z" fill="#005d9a"/><path d="M93.1 8.8c.5-.6 1.1-1.2 1.7-1.7C86.1-.7 77.4-.2 73.9.3c-.6.8-1.2 1.7-1.7 2.6 2.7-.6 11.7-1.8 20.9 5.9zm12.9 8.3c-.8.4-1.6 1-2.2 1.6 8.4 5.6 16.1 4.4 18.3 3.9.2-.8.3-1.5.4-2.3-5.7 1-11.6-.2-16.5-3.2z" fill="#002d5a"/><path d="M89.7 12.2c.6-.5 1.2-1.1 1.8-1.8C82.2 3 73.2 4.7 71.1 5.2c-.3.8-.7 1.6-.9 2.4 1.9-.4 10.5-2 19.5 4.6zm12.1 8.1c-.6.5-1.2 1.1-1.8 1.8 9.3 7.4 18.3 5.7 20.4 5.2.3-.8.7-1.6.9-2.4-1.8.4-10.4 2-19.5-4.6z" fill="#002d5a"/><path d="M85.6 15.4c.8-.5 1.5-1 2.2-1.6-5.3-3.7-11.9-5.1-18.3-3.9-.2.8-.3 1.5-.4 2.3 5.6-.9 11.5.2 16.5 3.2zM98.5 23.8c-.5.6-1.1 1.2-1.7 1.7 8.7 7.7 17.3 7.3 20.8 6.7.6-.8 1.2-1.7 1.7-2.6-2.7.7-11.6 1.9-20.8-5.8z" fill="#002d5a"/><g><path d="M70.9 68.6c1.9 0 2.6 1.1 2.6 2.3 0 .6-.3 1.2-.8 1.6.6.4.9 1 1 1.7 0 1.3-1 2.4-2.4 2.5h-4v-8.1h3.6z" fill="#002d5a"/><path d="M69.1 70.1v1.8H71c.4 0 .8-.3.9-.7V71c0-.5-.3-.9-1-.9h-1.8zM69.1 73.3v2H71c.6 0 1-.4 1-1 0-.5-.4-.9-.9-.9H71l-1.9-.1z" fill="#fff"/><path d="M81.9 72.6c0 2.5-1.2 4.3-3.5 4.3s-3.5-1.7-3.5-4.2 1.3-4.1 3.5-4.1c2.3-.1 3.5 1.8 3.5 4z" fill="#002d5a"/><path d="M76.5 72.6c0 1.8.6 2.7 1.8 2.7 1.2 0 1.8-1 1.8-2.7 0-1.5-.6-2.6-1.8-2.6-1.2 0-1.8.9-1.8 2.6z" fill="#fff"/><path d="M87 68.6c1.4-.1 2.6 1 2.7 2.4v.2c0 1-.5 1.8-1.4 2.3l1.9 3.2h-2l-1.7-2.9H85v2.9h-1.7v-8.1H87z" fill="#002d5a"/><path d="M85 70.2v2.1h2c.6 0 1-.4 1-1s-.4-1-.9-1H87l-2-.1z" fill="#fff"/><path fill="#002d5a" d="M97.3 70.2h-4.1v1.7h3.4v1.5h-3.4v1.8h4.1v1.6h-5.8v-8.2h5.8zM103.4 74.9h-2.9l-.7 1.8H98l3.1-8.1h1.5l3.1 8.1H104z"/><path fill="#fff" d="M101 73.4h1.8l-.9-2.4z"/><path fill="#002d5a" d="M108.5 75.1h3.7v1.6h-5.4v-8.1h1.7zM113.6 68.6h1.7v8.1h-1.7zM121.4 71c-.1-.6-.7-1.1-1.3-1-.7 0-1.3.3-1.3.9 0 .7 1 .8 2.4 1.1s2 1.1 2 2.3c0 1.5-1.3 2.6-3.2 2.6-1.6.1-3-1-3.2-2.7h1.8c.1.7.7 1.2 1.5 1.2.9 0 1.5-.4 1.5-1.1 0-.8-.8-.8-2.5-1.2-1.1-.2-2-1.1-2-2.2 0-1.4 1.2-2.4 3-2.4 1.5-.2 2.8.9 3 2.4l-1.7.1z"/></g><g><path d="M143.7 40.4c.1 0 .1 0 0 0h8c1.1 0 2.2.3 3.1.8 1 .6 1.6 1.4 1.9 2.5.1.5.2 1 .2 1.6s-.1 1.1-.3 1.6c-.3.9-.9 1.6-1.8 2.1 0 0-.1 0-.1.1.1 0 .1 0 .1.1 1.1.4 1.8 1.2 2.2 2.2.2.5.3 1 .4 1.5.1 1.1-.1 2.1-.6 3-.3.5-.6.9-1.1 1.3-.8.6-1.6 1-2.6 1.2-.5.1-1.1.1-1.6.1h-7.8V40.4zm2.7 12.8v2.7c0 .1 0 .1.1.1h5.6c.4 0 .8-.1 1.1-.3.7-.3 1.2-.8 1.5-1.6.2-.5.2-1 .1-1.5-.2-1-.7-1.7-1.6-2.1-.6-.2-1.1-.3-1.7-.3h-4.8c-.1 0-.1 0-.1.1-.2 1.1-.2 2-.2 2.9zm2.7-5.1h2.4c.5 0 .9-.1 1.4-.3.6-.3 1-.7 1.2-1.3.2-.5.2-1 .1-1.5-.1-.8-.6-1.3-1.3-1.7-.5-.3-1.1-.4-1.7-.4h-4.8c-.1 0-.1 0-.1.1v4.9c0 .1 0 .1.1.1.9 0 1.8 0 2.7.1zm39.2 9c0 .1 0 .1 0 0-.5.6-1.2 1-1.9 1.2-.7.2-1.3.2-2 .2-1-.1-1.8-.4-2.6-1-.5-.4-1-.9-1.3-1.5-.4-.8-.7-1.6-.8-2.5-.1-.7-.1-1.3-.1-2 0-.9.2-1.8.5-2.7.3-.8.8-1.6 1.4-2.2.7-.6 1.5-1 2.4-1.2.3-.1.7-.1 1-.1 1.1 0 2 .2 2.9.9.2.1.3.3.5.4l.1.1v-1.1h2.4v12.3c0 1-.1 2-.5 2.9-.3.7-.7 1.3-1.2 1.8s-1.2.8-1.9 1-1.4.2-2.1.2c-.8 0-1.6-.2-2.4-.5-.9-.4-1.6-1-2-1.8-.3-.5-.5-1.2-.6-1.8h2.3c.1 0 .1 0 .1.1.2.9.8 1.4 1.7 1.6.7.2 1.4.1 2.1 0 .7-.2 1.2-.6 1.5-1.3.2-.4.3-.8.3-1.2.2-.7.2-1.2.2-1.8 0 .1 0 .1 0 0zm.1-5.3c0-.4 0-.9-.1-1.3-.1-.5-.2-1.1-.5-1.5-.3-.7-.9-1.1-1.6-1.3-.6-.2-1.1-.2-1.7 0-.4.1-.8.2-1.1.5-.5.4-.8.9-1 1.4-.2.7-.3 1.4-.4 2.1 0 .6 0 1.2.1 1.8.1.5.2 1.1.5 1.5.3.5.6.9 1.1 1.1.7.4 1.5.4 2.3.2.5-.1 1-.4 1.4-.8.3-.4.5-.8.6-1.2.3-.9.4-1.6.4-2.5zm-22.3.1c0-1.1.2-2 .5-3 .4-.9.9-1.8 1.7-2.4.7-.6 1.5-.9 2.3-1.1.6-.1 1.2-.2 1.8-.1.7.1 1.4.2 2 .6.6.3 1.1.7 1.6 1.2.7.8 1.2 1.8 1.4 2.9.2.8.2 1.6.2 2.3 0 1.1-.2 2.1-.6 3.1-.5 1.2-1.3 2.2-2.5 2.8-.6.3-1.2.5-1.9.6-.4 0-.8.1-1.2 0-1.2-.1-2.3-.4-3.2-1.2-.6-.5-1.1-1.2-1.4-1.9-.3-.7-.5-1.5-.6-2.2-.1-.5-.2-1-.1-1.6zm9.1.1c0-.4 0-.8-.1-1.1-.1-.5-.2-1-.4-1.5-.3-.6-.7-1.1-1.3-1.5-.8-.4-1.7-.5-2.5-.2-.9.2-1.4.8-1.8 1.6-.3.7-.5 1.4-.5 2.2 0 .5 0 1.1.1 1.6.1.6.2 1.1.4 1.6.3.8.9 1.3 1.7 1.6.7.2 1.4.2 2.1 0 .6-.2 1.2-.5 1.5-1.1.3-.4.5-.9.6-1.3.1-.5.2-1.2.2-1.9zm-10.8 4.4v1.9c0 .1 0 .1-.1.1-.7.2-1.5.3-2.2.1-.7-.2-1.2-.7-1.6-1.3-.2-.5-.3-1-.3-1.5V40.5c0-.1 0-.1.1-.1h2.3c.1 0 .1 0 .1.1v15.2c.1.4.3.6.7.7h1z" fill="#005d9a"/></g></svg>